<svg aria-hidden="true" class="selected" xmlns="http://www.w3.org/2000/svg" width="700pt" height="700pt" viewBox="0 0 700 700">
	<path d="M311.61 2.12C222.27 12.5 139.31 56.82 82.24 125-6.56 230.93-24.98 376.97 34.46 501.13c35.2 73.11 91.36 129.27 164.28 164.27 124.36 59.62 270.4 41.2 376.36-47.59C653.69 552.18 700 452.64 700 350.16c0-102.46-46.31-202.02-124.9-267.66C502.16 21.24 404.24-8.47 311.62 2.1Zm225.2 213.12 40.1 40.12-279.89 279.87L121.98 360.2l81.14-81.14 93.9 93.9 99.01-99c54.34-54.34 99.2-98.82 99.74-98.82.55 0 18.96 18.05 41.02 40.1z" style="stroke-width:1.25008"/>
</svg>