<svg class="unselected" aria-hidden="true" xmlns="http://www.w3.org/2000/svg" viewBox="0 0 700 700">
	<g style="opacity:1">
	  <path d="M350 700C157.27 700 0 542.73 0 350S157.28 0 350 0s350 157.28 350 350-157.28 350-350 350zm0-672.73C171.82 27.27 27.27 171.82 27.27 350S171.82 672.73 350 672.73 672.73 528.18 672.73 350 528.18 27.27 350 27.27z"/>
	  <path d="M350-.81C156.84-.81-.81 156.83-.81 350c0 193.17 157.64 350.81 350.81 350.81 193.16 0 350.81-157.65 350.81-350.81S543.16-.81 350-.81zm0 1.62C542.28.81 699.19 157.71 699.19 350c0 192.28-156.9 349.19-349.19 349.19S.81 542.29.81 350 157.71.81 350 .81zm0 25.65C171.38 26.46 26.46 171.38 26.46 350c0 178.62 144.92 323.54 323.54 323.54 178.62 0 323.54-144.92 323.54-323.54 0-178.62-144.92-323.54-323.54-323.54zm0 1.62c177.74 0 321.92 144.18 321.92 321.92S527.74 671.92 350 671.92 28.08 527.74 28.08 350 172.26 28.08 350 28.08z"/>
	</g>
	<g style="opacity:1">
	  <path d="M350 675.3C162.84 675.3 10.1 529.13 10.1 350 10.1 170.87 162.84 24.7 350 24.7c187.16 0 339.9 146.18 339.9 325.3S537.16 675.3 350 675.3zm0-625.25C176.96 50.05 36.59 184.39 36.59 350c0 165.6 140.37 299.95 313.41 299.95 173.04 0 313.41-134.34 313.41-299.95 0-165.6-140.37-299.95-313.41-299.95z"/>
	  <path d="M350 23.93C162.44 23.93 9.33 170.43 9.33 350S162.43 676.07 350 676.07c187.56 0 340.67-146.51 340.67-326.07S537.56 23.93 350 23.93zm0 1.54c186.76 0 339.13 145.85 339.13 324.53 0 178.68-152.37 324.53-339.13 324.53S10.87 528.69 10.87 350C10.88 171.31 163.25 25.47 350 25.47zm0 23.8C176.56 49.28 35.82 183.97 35.82 350c0 166.04 140.74 300.72 314.18 300.72S664.18 516.04 664.18 350c0-166.04-140.74-300.72-314.18-300.72zm0 1.55c172.64 0 312.64 134 312.64 299.18 0 165.17-140 299.18-312.64 299.18S37.36 515.18 37.36 350c0-165.17 140-299.18 312.64-299.18z"/>
	</g>
  </svg>