<svg aria-hidden="true" focusable="false" xmlns="http://www.w3.org/2000/svg" viewBox="0 0 183.648 149.573" height="47" width="58" style="display: inline">
	<g style="fill:#220b28">
		<path d="m185.093 100.025-21.214-21.213-21.213-21.213-21.213 21.213 21.213 21.213-21.213 21.213 21.213 21.213-21.213 21.214 21.213 21.213 21.213-21.213 21.214-21.214-21.214-21.213zM193.361 150.682l-21.213 21.213-21.213 21.214 21.213 21.213 21.213-21.213 21.214 21.213 21.213-21.213 21.214 21.213 21.213-21.213-21.213-21.214-21.214-21.213-21.213 21.213z" style="opacity:1;fill:#220b28;fill-opacity:1;stroke:none;stroke-width:.534506;stroke-miterlimit:4;stroke-dasharray:none;stroke-opacity:1" transform="rotate(-15 -116.49 506.522)"/>
	</g>
	<path d="m451.387-19.84-25.98-15-25.981-15-15 25.98 25.98 15-15 25.981 25.981 15-15 25.98 25.981 15 15-25.98 15-25.98-25.98-15z" style="fill:#e43;fill-opacity:1;stroke:none;stroke-width:.534506;stroke-miterlimit:4;stroke-dasharray:none;stroke-opacity:1" transform="translate(-384.426 49.84)"/>
	<path d="m472.486 26.95-15 25.981-15 25.981 25.98 15 15-25.98 25.981 15 15-25.981 25.981 15 15-25.981-25.98-15-25.982-15-15 25.98Z" style="fill:#eed043;fill-opacity:1;stroke:none;stroke-width:.534506;stroke-miterlimit:4;stroke-dasharray:none;stroke-opacity:1" transform="translate(-384.426 49.84)"/>
</svg>