<svg aria-hidden="true" focusable="false" xmlns="http://www.w3.org/2000/svg" viewBox="0 0 216.41 232.01">
	<path d="M115.06 0C83.42.26 52.98 3.68 35.25 11.83c0 0-35.18 15.73-35.18 69.42 0 12.3-.24 27 .15 42.58 1.28 52.5 9.63 104.24 58.17 117.1 22.38 5.92 41.6 7.16 57.07 6.3 28.07-1.55 43.82-10 43.82-10l-.92-20.37s-20.06 6.32-42.58 5.55c-22.32-.77-45.88-2.4-49.49-29.8a56.2 56.2 0 0 1-.5-7.69s21.91 5.36 49.67 6.63c16.98.78 32.9-1 49.07-2.93 31-3.7 58-22.8 61.4-40.26 5.34-27.5 4.9-67.11 4.9-67.11 0-53.69-35.17-69.42-35.17-69.42C177.93 3.68 147.47.26 115.83 0h-.77zM79.25 41.95c13.18 0 23.16 5.06 29.76 15.2l6.41 10.75 6.42-10.76c6.6-10.13 16.57-15.2 29.75-15.2 11.4 0 20.57 4.01 27.58 11.82 6.8 7.81 10.17 18.37 10.17 31.66v65H163.6v-63.1c0-13.3-5.6-20.04-16.79-20.04-12.38 0-18.58 8-18.58 23.84v34.53h-25.6V91.12c0-15.84-6.2-23.84-18.58-23.84-11.2 0-16.79 6.75-16.79 20.05v63.09H41.5v-65c0-13.29 3.38-23.85 10.18-31.66 7-7.8 16.18-11.81 27.57-11.81z" transform="scale(.9375)"/>
  </svg>