<svg aria-hidden="true" xmlns="http://www.w3.org/2000/svg" version="1.0" viewBox="0 0 600 600">
	<g>
		<path d="M94.4 1.5C82.9 3.6 73.1 6.9 62.5 12.1 29.3 28.5 6.6 60.1 1 98c-.8 5.3-1 48.7-.8 150.5l.3 143 2.3 8.5c7.1 26.8 20.7 48 41.2 64.2 5.5 4.3 21.6 13.6 25 14.5 1.4.3 4.4 1.4 6.7 2.4s7.5 2.6 11.5 3.6c6.7 1.6 17.5 1.8 128.8 2.3l121.5.5 37 55.7c20.4 30.6 37.5 55.7 38 55.7.6 0 17.7-25.1 38-55.7l37-55.7 4-.2c19.4-1.1 36.8-6.1 52-14.9 27.2-15.8 45.2-40 53.7-72.4l2.3-8.5.3-143c.2-101.8 0-145.2-.8-150.5-7.5-50.1-44-87.8-93.7-96.5C497.6.2 472.4 0 299 .1 142.1.2 100 .5 94.4 1.5zm393.4 129.7.2 18.8H112v-18.3c0-10.1.3-18.7.7-19 .3-.4 84.8-.6 187.7-.5l187.1.3.3 18.7zm0 75 .2 18.8H112v-18.3c0-10.1.3-18.7.7-19 .3-.4 84.8-.6 187.7-.5l187.1.3.3 18.7zm-1.4 56.4c1.4.5 1.6 3.2 1.6 19V300H112v-18.4c0-13.8.3-18.6 1.3-18.9 1.8-.8 371.2-.8 373.1-.1zM300 356v19H112v-38h188v19z" />
	</g>
</svg>